<?xml version="1.0" encoding="UTF-8"?>
<svg width="21px" height="21px" viewBox="0 0 21 21" version="1.1" xmlns="http://www.w3.org/2000/svg" xmlns:xlink="http://www.w3.org/1999/xlink">
    <!-- Generator: Sketch 63.1 (92452) - https://sketch.com -->
    <title>Fill 1</title>
    <desc>Created with Sketch.</desc>
    <g id="Web-Redesign-2020" stroke="none" stroke-width="1" fill="none" fill-rule="evenodd">
        <g id="marketing_large" transform="translate(-1406.000000, -720.000000)" fill="#747588">
            <path d="M1406.84642,741.000599 C1406.5039,741.000599 1406.19571,740.794376 1406.06491,740.477322 C1405.933,740.161387 1406.00616,739.796697 1406.24782,739.555027 L1412.04778,733.755067 L1407.17011,733.755067 C1406.72781,733.72292 1406.38418,733.354876 1406.38418,732.910358 C1406.38418,732.46584 1406.72781,732.097801 1407.17011,732.065649 L1414.14948,732.065649 C1414.31132,732.078949 1414.46431,732.13992 1414.59289,732.23858 C1414.63834,732.272944 1414.67935,732.311743 1414.71704,732.353867 C1414.85007,732.505737 1414.92434,732.700849 1414.92545,732.903697 L1414.92545,739.883061 C1414.8933,740.325365 1414.52526,740.668998 1414.08074,740.668998 C1413.63622,740.668998 1413.26818,740.325365 1413.23603,739.883061 L1413.23603,734.952328 L1407.44515,740.752288 C1407.28663,740.911916 1407.07158,741.000599 1406.84654,741.000599 L1406.84642,741.000599 Z M1418.93388,728.917642 L1425.86444,728.917642 C1426.09944,728.934269 1426.33001,728.853348 1426.50295,728.69261 C1426.67477,728.532982 1426.77232,728.307942 1426.77232,728.072941 C1426.77232,727.837935 1426.67477,727.6129 1426.50295,727.453272 C1426.33002,727.292535 1426.09944,727.211614 1425.86444,727.228241 L1420.98677,727.228241 L1426.76885,721.42828 C1427.08368,721.094608 1427.07591,720.572504 1426.75112,720.248821 C1426.42743,719.924031 1425.9053,719.916255 1425.57166,720.231084 L1419.7717,726.031045 L1419.7717,721.100312 C1419.73955,720.658008 1419.37151,720.314375 1418.92699,720.314375 C1418.48247,720.314375 1418.11443,720.658008 1418.08228,721.100312 L1418.08228,728.075135 C1418.0856,728.516333 1418.42702,728.881022 1418.86711,728.913175 L1418.93362,728.913175 L1418.93388,728.917642 Z" id="Fill-1"></path>
        </g>
    </g>
</svg>