<?xml version="1.0" encoding="UTF-8"?>
<svg width="185px" height="46px" viewBox="0 0 185 46" version="1.1" xmlns="http://www.w3.org/2000/svg" xmlns:xlink="http://www.w3.org/1999/xlink">
    <!-- Generator: Sketch 63.1 (92452) - https://sketch.com -->
    <title>Group Copy</title>
    <desc>Created with Sketch.</desc>
    <g id="Web-Redesign-2020" stroke="none" stroke-width="1" fill="none" fill-rule="evenodd">
        <g id="Candidate-Profile_standalone" transform="translate(-191.000000, -3113.000000)" fill="#ACACAC" fill-rule="nonzero">
            <g id="Group-6" transform="translate(92.000000, 3114.000000)">
                <g id="Group-9" transform="translate(99.361867, -0.000000)">
                    <g id="Group-Copy" transform="translate(5.539344, 4.423733)">
                        <path d="M18.3900115,-7.10542736e-15 C22.6678925,-7.10542736e-15 26.7221931,1.4642534 29.9660146,4.09939531 L29.6510912,3.85013534 C29.9412614,3.6414156 30.2976108,3.51843325 30.6827751,3.51843325 C31.657272,3.51843325 32.4474863,4.30612582 32.4474863,5.27778696 C32.4474863,6.2494481 31.657272,7.0368665 30.6827751,7.0368665 C29.7389269,7.0368665 28.9681122,6.29861596 28.9201553,5.36968676 L28.8212223,5.49026941 C25.8975465,3.11520019 22.2467267,1.79666812 18.3900115,1.79666812 C9.28307665,1.79666812 1.90040535,9.13111921 1.90040535,18.1785718 C1.90040535,27.2260244 9.28307665,34.5604754 18.3900115,34.5604754 C22.2988743,34.5604754 25.9957018,33.2059247 28.9368883,30.7719942 L28.9368883,30.7719942 C28.9255237,30.6834152 28.9177887,30.5890835 28.9177887,30.4929511 C28.9177887,29.5212899 29.7080031,28.7338715 30.6827751,28.7338715 C31.657272,28.7338715 32.4474863,29.5212899 32.4474863,30.4929511 C32.4474863,31.4646122 31.657272,32.2523048 30.6827751,32.2523048 C30.4761083,32.2523048 30.2777375,32.2168975 30.0934347,32.1518367 C26.8311375,34.8528983 22.7257652,36.3571436 18.3900115,36.3571436 C8.28428058,36.3571436 0.0919250768,28.2182968 0.0919250768,18.1785718 C0.0919250768,8.13884681 8.28428058,-7.10542736e-15 18.3900115,-7.10542736e-15 Z M18.6228374,3.51843325 C26.5829602,3.51843325 33.0357693,9.9422735 33.0357693,17.8664432 C33.0357693,23.0273026 30.2734998,27.6814613 25.9560478,30.2224081 C25.9692396,30.3102023 25.9763741,30.400883 25.9763741,30.4932252 C25.9763741,31.4648864 25.1864348,32.2523048 24.2116628,32.2523048 C23.2368909,32.2523048 22.4466765,31.4648864 22.4466765,30.4932252 C22.4466765,29.5215641 23.2368909,28.7338715 24.2116628,28.7338715 C24.3698814,28.7338715 24.5232304,28.7546238 24.6691224,28.7935467 C28.6098248,26.6329387 31.1520522,22.4830267 31.1520522,17.8664432 C31.1520522,10.9779292 25.5426055,5.39366529 18.6228374,5.39366529 C11.7032595,5.39366529 6.0936227,10.9780339 6.0936227,17.8664432 C6.0936227,20.8445534 7.14598232,23.6540851 9.01423331,25.8722787 C9.1702115,25.8257616 9.33445682,25.8018438 9.50431447,25.8018438 C10.4790864,25.8018438 11.2693008,26.5895364 11.2693008,27.5611975 C11.2693008,28.5325845 10.4790864,29.3202771 9.50431447,29.3202771 C8.52954253,29.3202771 7.73960319,28.5325845 7.73960319,27.5611975 C7.73960319,27.4712672 7.74636989,27.3829127 7.75942354,27.2966128 C5.49290064,24.7125132 4.2099056,21.3901982 4.2099056,17.8664432 C4.2099056,9.94237189 10.6629113,3.51843325 18.6228374,3.51843325 Z M18.6228374,7.58501375 C24.3267547,7.58501375 28.9507883,12.1883188 28.9507883,17.8664432 C28.9507883,23.5448115 24.3268049,28.1481667 18.6228374,28.1481667 C13.505111,28.1481667 9.25678021,24.4424303 8.43757214,19.5793758 C8.01344975,19.2588578 7.73960319,18.7505342 7.73960319,18.1784347 C7.73960319,17.2070477 8.52954253,16.4193552 9.50431447,16.4193552 C10.4790864,16.4193552 11.2693008,17.2070477 11.2693008,18.1784347 C11.2693008,18.8316523 10.912167,19.4017261 10.3819154,19.7052273 C11.2234108,23.4634174 14.5935721,26.2729346 18.6228374,26.2729346 C23.2864384,26.2729346 27.0670712,22.5091677 27.0670712,17.8664432 C27.0670712,13.2239718 23.2863973,9.4602458 18.6228374,9.4602458 C17.9128138,9.4602458 17.2160079,9.54733887 16.5440987,9.71652259 C16.5576884,9.79887438 16.5638472,9.88323568 16.5638472,9.96903129 C16.5638472,10.9406924 15.7739078,11.7281108 14.7991359,11.7281108 C13.824364,11.7281108 13.0341496,10.9406924 13.0341496,9.96903129 C13.0341496,8.99737015 13.824364,8.20967758 14.7991359,8.20967758 C14.8780787,8.20967758 14.9558092,8.21484383 15.0320061,8.22485566 C16.1678534,7.80409062 17.3799732,7.58501375 18.6228374,7.58501375 Z M144.494617,14.073733 C147.849831,14.073733 149.51579,16.5131485 149.51579,19.7101951 C149.51579,20.3259962 149.444383,20.8939184 149.372674,21.1784817 L142.305815,21.1784817 C142.61474,22.9545183 143.804754,23.7359383 145.3751,23.7359383 C146.255885,23.7359383 147.064659,23.475465 147.921238,22.9545183 L149.087349,25.0620938 C147.873735,25.8907905 146.303389,26.3882494 144.899155,26.3882494 C141.520339,26.3882494 138.926697,24.115055 138.926697,20.2311417 C138.926697,16.418294 141.663153,14.073733 144.494617,14.073733 Z M134.848963,14.073733 C136.249239,14.073733 137.420076,14.6184685 138.177574,15.4236774 L136.639518,17.5785296 C136.08869,17.1048596 135.5834,16.891964 135.055633,16.891964 C133.425627,16.891964 132.392278,18.1943307 132.392278,20.2311417 C132.392278,22.2676517 133.471456,23.5700183 134.940622,23.5700183 C135.767009,23.5700183 136.432848,23.1674139 136.983968,22.7175328 L138.338414,24.9199627 C137.236175,25.9145794 135.79007,26.3882494 134.550343,26.3882494 C131.382573,26.3882494 128.925887,24.1385428 128.925887,20.2311417 C128.925887,16.3234396 131.70367,14.073733 134.848963,14.073733 Z M99.2293691,14.073733 C102.121845,14.073733 104.806287,16.3234396 104.806287,20.2311417 C104.806287,24.1385428 102.121845,26.3882494 99.2293691,26.3882494 C96.3136471,26.3882494 93.6289113,24.1385428 93.6289113,20.2311417 C93.6289113,16.3234396 96.3136471,14.073733 99.2293691,14.073733 Z M59.2888794,9.38248866 L59.2888794,22.1172765 C59.2888794,22.8311742 59.6041384,23.0613315 59.8744421,23.0613315 C60.009594,23.0613315 60.0997907,23.0613315 60.2798978,23.0153586 L60.6850671,25.5254207 C60.324853,25.6867651 59.761911,25.8018438 59.0185756,25.8018438 C56.7441871,25.8018438 55.9788036,24.2821025 55.9788036,21.9790649 L55.9788036,9.38248866 L59.2888794,9.38248866 Z M48.9788436,9.9688942 C50.8329179,9.9688942 52.3895253,10.9055348 53.3966049,11.9595162 L51.5425306,14.0910065 C50.7872209,13.3884516 50.0776082,12.9432122 49.0245406,12.9432122 C46.9416904,12.9432122 45.316392,14.7935614 45.316392,17.8619902 C45.316392,21.0004065 46.7586115,22.827228 48.9331466,22.827228 C50.1690021,22.827228 51.0389908,22.2887713 51.7715976,21.4688757 L53.6256719,23.5536085 C52.3895253,25.0290036 50.741524,25.8018438 48.8874497,25.8018438 C45.0189251,25.8018438 41.8600133,23.1083691 41.8600133,17.9790331 C41.8600133,12.9199823 45.133313,9.9688942 48.9788436,9.9688942 Z M65.7131921,14.1193495 L65.7131921,25.8018438 L62.1523864,25.8018438 L62.1523864,14.1193495 L65.7131921,14.1193495 Z M126.986661,14.073733 C127.627777,14.073733 128.017046,14.1662051 128.337604,14.3047666 L127.78791,17.2365741 C127.375931,17.1212041 127.032372,17.0519234 126.551681,17.0519234 C125.70443,17.0519234 124.651043,17.6061692 124.055929,19.1529494 L124.055929,25.8018438 L120.689926,25.8018438 L120.689926,14.3508559 L123.437523,14.3508559 L123.66666,16.3594097 L123.758081,16.3594097 C124.582331,14.8126295 125.818852,14.073733 126.986661,14.073733 Z M72.271887,9.38248866 L72.271887,18.7982498 L72.3654464,18.7982498 L76.0443593,14.1841873 L79.7935907,14.1841873 L75.7163052,18.9623569 L80.0984038,25.8018438 L76.3724133,25.8018438 L73.7479811,21.2813016 L72.271887,22.9441154 L72.271887,25.8018438 L68.9210281,25.8018438 L68.9210281,9.38248866 L72.271887,9.38248866 Z M87.1964895,9.9688942 C88.9177021,9.9688942 90.730841,10.6714491 92.0163516,11.9830439 L90.3176099,14.1612918 C89.3309332,13.3884516 88.3900737,12.9432122 87.1964895,12.9432122 C86.0490145,12.9432122 85.291716,13.4587368 85.291716,14.3250922 C85.291716,15.2620307 86.2783928,15.5899293 87.5866661,16.1286838 L89.4914396,16.9250518 C91.3045786,17.6743643 92.4523454,18.9156737 92.4523454,21.0706917 C92.4523454,23.600366 90.3867736,25.8018438 86.8293676,25.8018438 C84.8784849,25.8018438 82.8129131,25.0525313 81.2749697,23.600366 L83.2258524,21.23479 C84.2819846,22.1714306 85.658838,22.827228 86.8982394,22.827228 C88.2981473,22.827228 88.9868658,22.2649458 88.9868658,21.3518328 C88.9868658,20.3913667 88.1376408,20.0869957 86.8293676,19.5247135 L84.9015395,18.681588 C83.3408333,18.0493184 81.8720536,16.7377236 81.8720536,14.5127181 C81.8720536,11.9830439 84.0981318,9.9688942 87.1964895,9.9688942 Z M110.665058,14.073733 L110.665058,20.7458189 C110.665058,22.3850712 111.118122,22.915832 112.143734,22.915832 C113.026209,22.915832 113.550842,22.5468241 114.242569,21.6461747 L114.242569,14.073733 L117.748511,14.073733 L117.748511,25.5247209 L114.886381,25.5247209 L114.624065,23.9318514 L114.5528,23.9318514 C113.550842,25.0861387 112.453965,25.8018438 110.832152,25.8018438 C108.256296,25.8018438 107.159419,24.0472214 107.159419,21.1844011 L107.159419,14.073733 L110.665058,14.073733 Z M18.6486469,11.7281108 C19.923746,11.7281108 21.1414718,12.1121207 22.1646624,12.812126 C22.2730867,12.790662 22.3856193,12.7796726 22.5007229,12.7796726 C23.4754949,12.7796726 24.2657092,13.5673652 24.2657092,14.5390264 C24.2657092,15.5104133 23.4754949,16.2981059 22.5007229,16.2981059 C21.526226,16.2981059 20.7360117,15.5104133 20.7360117,14.5390264 C20.7360117,14.4145544 20.7489792,14.2931015 20.7736405,14.1759366 C20.1360693,13.8146257 19.4081965,13.6191162 18.6486469,13.6191162 C16.2749997,13.6191162 14.3508985,15.5291255 14.3508985,17.8852207 C14.3508985,20.241575 16.2749618,22.1516218 18.6486469,22.1516218 C19.6691077,22.1516218 20.6310902,21.7981337 21.3936809,21.1684525 C21.3131334,20.9677419 21.2701106,20.751052 21.2701106,20.524331 C21.2701106,19.5526699 22.060325,18.7649773 23.0348219,18.7649773 C24.0095938,18.7649773 24.7998082,19.5526699 24.7998082,20.524331 C24.7998082,21.4959922 24.0095938,22.2834106 23.0348219,22.2834106 L22.9906669,22.2825721 C21.8401836,23.4024363 20.2944084,24.0426272 18.6486469,24.0426272 C15.2228083,24.0426272 12.4458667,21.2859152 12.4458667,17.8852207 C12.4458667,14.4847687 15.2228628,11.7281108 18.6486469,11.7281108 Z M99.2293691,16.891964 C97.8175582,16.891964 97.1231285,18.1943307 97.1231285,20.2311417 C97.1231285,22.2676517 97.8175582,23.5700183 99.2293691,23.5700183 C100.61764,23.5700183 101.335021,22.2676517 101.335021,20.2311417 C101.335021,18.1943307 100.61764,16.891964 99.2293691,16.891964 Z M144.566326,16.726044 C143.471623,16.726044 142.519733,17.4601874 142.281912,19.0230273 L146.54121,19.0230273 C146.54121,17.673384 145.969955,16.726044 144.566326,16.726044 Z M63.9206232,8.79608312 C65.1319932,8.79608312 65.9796135,9.52625773 65.9796135,10.586179 C65.9796135,11.6461002 65.1319932,12.3999351 63.9206232,12.3999351 C62.7338933,12.3999351 61.8616329,11.6461002 61.8616329,10.586179 C61.8616329,9.52625773 62.7338933,8.79608312 63.9206232,8.79608312 Z" id="Combined-Shape"></path>
                    </g>
                </g>
            </g>
        </g>
    </g>
</svg>