<?xml version="1.0" encoding="UTF-8"?>
<svg width="12px" height="12px" viewBox="0 0 12 12" version="1.1" xmlns="http://www.w3.org/2000/svg" xmlns:xlink="http://www.w3.org/1999/xlink">
    <!-- Generator: Sketch 63.1 (92452) - https://sketch.com -->
    <title>noun_Info_1845673</title>
    <desc>Created with Sketch.</desc>
    <g id="Web-Redesign-2020" stroke="none" stroke-width="1" fill="none" fill-rule="evenodd">
        <g id="Candidate-Profile_standalone" transform="translate(-1126.000000, -1097.000000)" fill="#4C5459" fill-rule="nonzero">
            <g id="noun_Info_1845673" transform="translate(1126.000000, 1097.000000)">
                <path d="M8.31083533,0.547085749 C10.5312809,1.46729582 11.9786032,3.63464166 11.9777326,6.03821491 C11.9729878,9.31655255 9.31655255,11.9729878 6.03821491,11.9777326 C3.63464166,11.9786032 1.46729582,10.5312809 0.547085749,8.31083533 C-0.373124318,6.09038975 0.135082942,3.53424906 1.834666,1.834666 C3.53424906,0.135082942 6.09038975,-0.373124318 8.31083533,0.547085749 Z M6.03821491,0.957967441 C3.98325105,0.957096785 2.1301478,2.19430677 1.3431435,4.09259586 C0.556139195,5.99088495 0.990251833,8.1763429 2.44302276,9.62972993 C3.89579369,11.083117 6.08106738,11.5181562 7.97968998,10.7319568 C9.87831259,9.94575747 11.1163084,8.09317896 11.1163084,6.03821491 C11.1139354,3.23429607 8.84213251,0.961529692 6.03821491,0.957967441 Z M6.57014413,5.23278364 L6.57014413,8.74954641 L5.50197858,8.74954641 L5.50197858,5.23278364 L6.57014413,5.23278364 Z M6.03821491,3.32472986 C6.41881591,3.32472986 6.72735398,3.63326793 6.72735398,4.01386892 C6.72735398,4.39446992 6.41881591,4.70300798 6.03821491,4.70300798 C5.65761392,4.70300798 5.34907585,4.39446992 5.34907585,4.01386892 C5.34907585,3.63326793 5.65761392,3.32472986 6.03821491,3.32472986 Z" id="Combined-Shape"></path>
            </g>
        </g>
    </g>
</svg>