<?xml version="1.0" encoding="UTF-8"?>
<svg width="24px" height="24px" viewBox="0 0 24 24" version="1.1" xmlns="http://www.w3.org/2000/svg" xmlns:xlink="http://www.w3.org/1999/xlink">
    <!-- Generator: Sketch 63.1 (92452) - https://sketch.com -->
    <title>Group 5</title>
    <desc>Created with Sketch.</desc>
    <g id="Web-Redesign-2020" stroke="none" stroke-width="1" fill="none" fill-rule="evenodd">
        <g id="Candidate-Profile_standalone" transform="translate(-1245.000000, -33.000000)" fill="#F25832">
            <g id="Group-11" transform="translate(1227.000000, 23.000000)">
                <g id="Group-5" transform="translate(18.000000, 10.000000)">
                    <path d="M13.6668,7.12032 C13.6668,8.040936 12.920544,8.786256 11.999928,8.786256 C11.079312,8.786256 10.333056,8.040936 10.333056,7.12032 C10.333056,6.199704 11.079312,5.453448 11.999928,5.453448 C12.920544,5.453448 13.6668,6.199704 13.6668,7.12032" id="Fill-1"></path>
                    <path d="M13.38648,11.68584 L13.38648,17.17968 C13.38648,17.945616 12.765864,18.566232 11.999928,18.566232 C11.233992,18.566232 10.613376,17.945616 10.613376,17.17968 L10.613376,11.68584 C10.613376,10.92084 11.233992,10.299288 11.999928,10.299288 C12.765864,10.299288 13.38648,10.92084 13.38648,11.68584 Z" id="Fill-2"></path>
                    <path d="M12,0 C5.37288,0 0,5.37288 0,12 C0,18.62712 5.37288,24 12,24 C18.62712,24 24,18.62712 24,12 C24,5.37288 18.62712,0 12,0 Z M18.9768,18.9768 C17.1318,20.852736 14.6136,21.9148798 11.982,21.92625 C9.35136,21.9374098 6.82392,20.896776 4.96392,19.03584 C3.102984,17.17584 2.06231976,14.6484 2.07350877,12.01776 C2.08484952,9.38616 3.147048,6.86808 5.02296,5.02296 C6.86796,3.147024 9.38616,2.08488 12.01776,2.07350971 C14.6484,2.0623488 17.17584,3.102984 19.03584,4.96392 C20.896776,6.82392 21.93744,9.35136 21.9262508,11.982 C21.9149088,14.6136 20.852712,17.13168 18.9768,18.9768 Z" id="Fill-3"></path>
                    <path d="M12,0 C5.37288,0 0,5.37288 0,12 C0,18.62712 5.37288,24 12,24 C18.62712,24 24,18.62712 24,12 C24,5.37288 18.62712,0 12,0 Z M18.9768,18.9768 C17.1318,20.852736 14.6136,21.9148798 11.982,21.92625 C9.35136,21.9374098 6.82392,20.896776 4.96392,19.03584 C3.102984,17.17584 2.06231976,14.6484 2.07350877,12.01776 C2.08484952,9.38616 3.147048,6.86808 5.02296,5.02296 C6.86796,3.147024 9.38616,2.08488 12.01776,2.07350971 C14.6484,2.0623488 17.17584,3.102984 19.03584,4.96392 C20.896776,6.82392 21.93744,9.35136 21.9262508,11.982 C21.9149088,14.6136 20.852712,17.13168 18.9768,18.9768 Z" id="Fill-4"></path>
                </g>
            </g>
        </g>
    </g>
</svg>