<?xml version="1.0" encoding="UTF-8"?>
<svg width="28px" height="28px" viewBox="0 0 28 28" version="1.1" xmlns="http://www.w3.org/2000/svg" xmlns:xlink="http://www.w3.org/1999/xlink">
    <!-- Generator: Sketch 63.1 (92452) - https://sketch.com -->
    <title>Combined Shape 12</title>
    <desc>Created with Sketch.</desc>
    <g id="Web-Redesign-2020" stroke="none" stroke-width="1" fill="none" fill-rule="evenodd">
        <g id="Candidate-Profile_standalone" transform="translate(-262.000000, -214.000000)" fill="#0083BE">
            <g id="Combined-Shape-12" transform="translate(262.000000, 214.000000)">
                <path d="M14.0003678,-9.59232693e-14 C21.7321668,-9.59232693e-14 28,6.26856888 28,14.0003678 C28,21.627683 21.9004231,27.8303318 14.3130053,27.9965781 L14.0003678,28 C6.26783322,28 -3.19744231e-14,21.7321668 -3.19744231e-14,14.0003678 C-3.19744231e-14,6.26856888 6.26783322,-9.59232693e-14 14.0003678,-9.59232693e-14 Z M10.5493813,10.8796931 L7.65161189,10.8796931 L7.65161189,20.2395103 L10.5493813,20.2395103 L10.5493813,10.8796931 Z M18.001629,10.5935209 C16.0160795,10.5935209 15.181104,12.1398807 15.181104,12.1398807 L15.181104,10.8796931 L12.4017761,10.8796931 L12.4017761,20.2395103 L15.181104,20.2395103 L15.181104,15.3260293 L15.181104,15.3260293 C15.181104,14.0106671 15.7865532,13.2264523 16.9466908,13.2264523 C18.0119282,13.2264523 18.5239484,13.9790337 18.5239484,15.3260293 L18.5239484,20.2395103 L18.5239484,20.2395103 L21.4077402,20.2395103 L21.4077402,14.3130238 L21.4077402,14.3130238 C21.4077402,11.8058905 19.9864428,10.5935209 18.001629,10.5935209 Z M9.08688684,6.19941673 C8.14009091,6.19941673 7.37353196,6.97259662 7.37353196,7.9260135 C7.37353196,8.87943039 8.14009091,9.65408161 9.08688684,9.65408161 C10.0329471,9.65408161 10.8002417,8.87943039 10.8002417,7.9260135 C10.8002417,6.97259662 10.0329471,6.19941673 9.08688684,6.19941673 Z" id="Combined-Shape"></path>
            </g>
        </g>
    </g>
</svg>