<?xml version="1.0" encoding="UTF-8"?>
<svg width="37px" height="23px" viewBox="0 0 37 23" version="1.1" xmlns="http://www.w3.org/2000/svg" xmlns:xlink="http://www.w3.org/1999/xlink">
    <!-- Generator: Sketch 63.1 (92452) - https://sketch.com -->
    <title>noun_Location to Location_1940472 2</title>
    <desc>Created with Sketch.</desc>
    <g id="Web-Redesign-2020" stroke="none" stroke-width="1" fill="none" fill-rule="evenodd">
        <g id="Candidate-Profile_standalone" transform="translate(-770.000000, -229.000000)" fill="#4C5459" fill-rule="nonzero" stroke="#FFFFFF" stroke-width="0.25">
            <g id="Group-8" transform="translate(719.000000, 227.000000)">
                <g id="noun_Location-to-Location_1940472-2" transform="translate(50.214876, 1.647059)">
                    <g id="noun_Location-to-Location_1940472" transform="translate(1.619835, 0.000000)">
                        <g id="Group">
                            <path d="M6.52244369,18.7871529 C6.3593826,18.7871529 6.03326041,18.6163606 5.87019932,18.4455683 C5.21795495,17.7623991 -4.59585436e-16,11.6138763 -4.59585436e-16,8.19803034 C-4.59585436e-16,4.44059977 2.93509966,1.19554609 6.52244369,1.19554609 C10.1097877,1.19554609 13.0448874,4.26980747 13.0448874,8.19803034 C13.0448874,11.6138763 7.66387133,17.7623991 7.17468806,18.4455683 C7.01162696,18.6163606 6.68550478,18.7871529 6.52244369,18.7871529 Z M6.52244369,2.90346908 C3.91346621,2.90346908 1.63061092,5.29456126 1.63061092,8.19803034 C1.63061092,10.2475379 4.72877167,14.5173454 6.52244369,16.566853 C8.3161157,14.5173454 11.4142765,10.2475379 11.4142765,8.19803034 C11.4142765,5.29456126 9.29448226,2.90346908 6.52244369,2.90346908 Z" id="Shape"></path>
                            <path d="M6.52244369,10.7599148 C4.89183277,10.7599148 3.58734403,9.39357644 3.58734403,7.85644575 C3.58734403,6.31931506 4.89183277,4.95297667 6.52244369,4.95297667 C8.15305461,4.95297667 9.45754335,6.31931506 9.45754335,7.85644575 C9.45754335,9.39357644 8.15305461,10.7599148 6.52244369,10.7599148 Z M6.52244369,6.66089965 C5.87019932,6.66089965 5.21795495,7.17327655 5.21795495,7.85644575 C5.21795495,8.53961494 5.87019932,9.05199184 6.52244369,9.05199184 C7.17468806,9.05199184 7.82693243,8.53961494 7.82693243,7.85644575 C7.82693243,7.17327655 7.17468806,6.66089965 6.52244369,6.66089965 Z" id="Shape"></path>
                        </g>
                        <g id="Group" transform="translate(22.828553, 0.000000)">
                            <path d="M6.52244369,18.7871529 C6.3593826,18.7871529 6.03326041,18.6163606 5.87019932,18.4455683 C5.21795495,17.7623991 1.83834174e-15,11.6138763 1.83834174e-15,8.19803034 C1.83834174e-15,4.44059977 2.93509966,1.36633839 6.52244369,1.36633839 C10.1097877,1.36633839 13.0448874,4.44059977 13.0448874,8.19803034 C13.0448874,11.6138763 7.66387133,17.7623991 7.17468806,18.4455683 C7.01162696,18.6163606 6.68550478,18.7871529 6.52244369,18.7871529 Z M6.52244369,3.07426138 C3.91346621,3.07426138 1.63061092,5.46535356 1.63061092,8.19803034 C1.63061092,10.2475379 4.72877167,14.5173454 6.52244369,16.566853 C8.3161157,14.5173454 11.4142765,10.2475379 11.4142765,8.19803034 C11.4142765,5.29456126 9.29448226,3.07426138 6.52244369,3.07426138 Z" id="Shape"></path>
                            <path d="M6.52244369,10.7599148 C4.89183277,10.7599148 3.58734403,9.39357644 3.58734403,7.85644575 C3.58734403,6.31931506 4.89183277,4.95297667 6.52244369,4.95297667 C8.15305461,4.95297667 9.45754335,6.31931506 9.45754335,7.85644575 C9.45754335,9.39357644 8.15305461,10.7599148 6.52244369,10.7599148 Z M6.52244369,6.66089965 C5.87019932,6.66089965 5.21795495,7.17327655 5.21795495,7.85644575 C5.21795495,8.53961494 5.87019932,9.05199184 6.52244369,9.05199184 C7.17468806,9.05199184 7.82693243,8.53961494 7.82693243,7.85644575 C7.82693243,7.17327655 7.17468806,6.66089965 6.52244369,6.66089965 Z" id="Shape"></path>
                        </g>
                        <path d="M29.3509966,22.7153757 L6.52244369,22.7153757 C6.03326041,22.7153757 5.70713823,22.3737911 5.70713823,21.8614142 C5.70713823,21.3490374 6.03326041,21.0074528 6.52244369,21.0074528 L29.3509966,21.0074528 C29.8401799,21.0074528 30.1663021,21.3490374 30.1663021,21.8614142 C30.1663021,22.3737911 29.8401799,22.7153757 29.3509966,22.7153757 Z" id="Path"></path>
                    </g>
                </g>
            </g>
        </g>
    </g>
</svg>