<?xml version="1.0" encoding="UTF-8"?>
<svg width="293px" height="40px" viewBox="0 0 293 40" version="1.1" xmlns="http://www.w3.org/2000/svg" xmlns:xlink="http://www.w3.org/1999/xlink">
    <!-- Generator: Sketch 63.1 (92452) - https://sketch.com -->
    <title>Group 2</title>
    <desc>Created with Sketch.</desc>
    <g id="Page-2" stroke="none" stroke-width="1" fill="none" fill-rule="evenodd">
        <g id="Group-2">
            <g id="Group">
                <path d="M23.4525049,23.3510852 C22.5952699,24.2085898 21.4382024,24.6979808 20.2007699,24.6979808 C17.6609563,24.6979808 15.6022323,22.639095 15.6022323,20.0991236 C15.6022323,17.5594313 17.6609967,15.500586 20.2007699,15.500586 C21.2734938,15.500586 22.2871669,15.8677517 23.10162,16.5306224 L24.3883129,14.9496938 C23.2135737,13.993592 21.7465742,13.4622255 20.2007699,13.4622255 C16.5352234,13.4622255 13.5638718,16.4336938 13.5638718,20.0991236 C13.5638718,23.7648146 16.535165,26.7363413 20.2007699,26.7363413 C21.9844135,26.7363413 23.658297,26.0283588 24.8940701,24.7921972 L23.4525049,23.3510852 Z" id="Stroke-1" fill="#E16240" fill-rule="nonzero"></path>
                <path d="M15.9250197,12.0213229 L14.9697113,10.2206843 C16.5676806,9.37289984 18.3528198,8.92330125 20.2007699,8.92330125 C26.3729493,8.92330125 31.3765922,13.9270529 31.3765922,20.0991236 C31.3765922,26.2714594 26.3730037,31.2752655 20.2007699,31.2752655 C14.0285361,31.2752655 9.02494759,26.2714594 9.02494759,20.0991236 L11.0633081,20.0991236 C11.0633081,25.1457238 15.1543114,29.236905 20.2007699,29.236905 C25.2472284,29.236905 29.3382317,25.1457238 29.3382317,20.0991236 C29.3382317,15.0527985 25.2471839,10.9616618 20.2007699,10.9616618 C18.6879025,10.9616618 17.2304906,11.3287202 15.9250197,12.0213229 Z M10.7406313,29.8111975 L9.31821725,31.2712153 C6.32473456,28.3548316 4.60461076,24.3626248 4.60461076,20.0991236 C4.60461076,11.4857286 11.5873749,4.50296443 20.2007699,4.50296443 C28.8143776,4.50296443 35.796929,11.4856216 35.796929,20.0991236 C35.796929,26.4162104 32.0066689,32.0348796 26.2912838,34.4615919 L25.494645,32.5853509 C30.4636163,30.4755606 33.7585685,25.5911344 33.7585685,20.0991236 C33.7585685,12.6113702 27.6886152,6.54132497 20.2007699,6.54132497 C12.7131303,6.54132497 6.6429713,12.611484 6.6429713,20.0991236 C6.6429713,23.8071034 8.13704048,27.2746637 10.7406313,29.8111975 Z" id="Stroke-2" fill="#465191" fill-rule="nonzero"></path>
                <path d="M31.5116073,33.8156436 C28.3291199,36.4665734 24.3289971,37.9418904 20.0994432,37.9418904 C10.2453568,37.9418904 2.25699605,29.9535296 2.25699605,20.0994432 C2.25699605,10.2453568 10.2453568,2.25699605 20.0994432,2.25699605 C24.2725712,2.25699605 28.2229117,3.69308304 31.3864518,6.27990371 L32.6251653,4.76502497 C29.115214,1.8949446 24.7282903,0.300144355 20.0994432,0.300144355 C9.16461744,0.300144355 0.300144355,9.16461744 0.300144355,20.0994432 C0.300144355,31.034269 9.16461744,39.8987421 20.0994432,39.8987421 C24.7909109,39.8987421 29.2330964,38.2603844 32.7640345,35.3192043 L31.5116073,33.8156436 Z" id="Stroke-3" fill="#465191" fill-rule="nonzero"></path>
                <path d="M26.5958584,17.0292765 C26.5958584,18.1617701 25.6775253,19.0801031 24.5447121,19.0801031 C23.4122186,19.0801031 22.4938855,18.1617701 22.4938855,17.0292765 C22.4938855,15.8964633 23.4122186,14.9781303 24.5447121,14.9781303 C25.6775253,14.9781303 26.5958584,15.8964633 26.5958584,17.0292765" id="Fill-4" fill="#E16240"></path>
                <path d="M17.6656848,11.4368104 C17.6656848,12.5696236 16.7476714,13.4876371 15.6148582,13.4876371 C14.482045,13.4876371 13.563712,12.5696236 13.563712,11.4368104 C13.563712,10.3039973 14.482045,9.3856642 15.6148582,9.3856642 C16.7476714,9.3856642 17.6656848,10.3039973 17.6656848,11.4368104" id="Fill-5" fill="#E16240"></path>
                <path d="M27.869634,33.3479876 C27.869634,34.4808008 26.9516206,35.3988142 25.8188074,35.3988142 C24.6859942,35.3988142 23.7676611,34.4808008 23.7676611,33.3479876 C23.7676611,32.2151744 24.6859942,31.2968414 25.8188074,31.2968414 C26.9516206,31.2968414 27.869634,32.2151744 27.869634,33.3479876" id="Fill-6" fill="#E16240"></path>
                <path d="M35.3559821,6.24357793 C35.3559821,7.37639113 34.4376491,8.29440454 33.3051555,8.29440454 C32.1723423,8.29440454 31.2540093,7.37639113 31.2540093,6.24357793 C31.2540093,5.11076474 32.1723423,4.19243169 33.3051555,4.19243169 C34.4376491,4.19243169 35.3559821,5.11076474 35.3559821,6.24357793" id="Fill-7" fill="#E16240"></path>
                <path d="M35.3559821,33.5049321 C35.3559821,34.6377453 34.4376491,35.5560784 33.3051555,35.5560784 C32.1723423,35.5560784 31.2540093,34.6377453 31.2540093,33.5049321 C31.2540093,32.3721189 32.1723423,31.4541055 33.3051555,31.4541055 C34.4376491,31.4541055 35.3559821,32.3721189 35.3559821,33.5049321" id="Fill-8" fill="#E16240"></path>
                <path d="M26.5958584,23.1440385 C26.5958584,24.2768517 25.6775253,25.1948651 24.5447121,25.1948651 C23.4122186,25.1948651 22.4938855,24.2768517 22.4938855,23.1440385 C22.4938855,22.0112253 23.4122186,21.0928922 24.5447121,21.0928922 C25.6775253,21.0928922 26.5958584,22.0112253 26.5958584,23.1440385" id="Fill-9" fill="#E16240"></path>
                <path d="M12.0952741,20.0991236 C12.0952741,21.2319368 11.1769411,22.1502698 10.0441279,22.1502698 C8.91131466,22.1502698 7.99330125,21.2319368 7.99330125,20.0991236 C7.99330125,18.96663 8.91131466,18.048297 10.0441279,18.048297 C11.1769411,18.048297 12.0952741,18.96663 12.0952741,20.0991236" id="Fill-10" fill="#E16240"></path>
                <path d="M12.0735384,30.5453617 C12.0735384,31.6778553 11.1552054,32.5961883 10.0223922,32.5961883 C8.88957897,32.5961883 7.97156556,31.6778553 7.97156556,30.5453617 C7.97156556,29.4125485 8.88957897,28.4942155 10.0223922,28.4942155 C11.1552054,28.4942155 12.0735384,29.4125485 12.0735384,30.5453617" id="Fill-11" fill="#E16240"></path>
                <path d="M53.1038151,11.8028012 C55.1399381,11.8028012 56.8493865,12.808077 57.9553497,13.939292 L55.9192267,16.2269737 C55.0897543,15.4729369 54.3104657,14.9950713 53.153999,14.9950713 C50.8666369,14.9950713 49.0817529,16.9810105 49.0817529,20.2742877 C49.0817529,23.6426809 50.6655817,25.6033683 53.0536312,25.6033683 C54.4108335,25.6033683 55.3662451,25.0254545 56.1707854,24.1454786 L58.2069084,26.3829765 C56.8493865,27.9664857 55.0395704,28.7959581 53.0034473,28.7959581 C48.7550782,28.7959581 45.2859976,25.9051108 45.2859976,20.3999072 C45.2859976,14.9701392 48.8806977,11.8028012 53.1038151,11.8028012" id="Fill-12" fill="#465191"></path>
                <path d="M60.3689706,10.8726413 L64.0640385,10.8726413 L64.0640385,24.7738959 C64.0640385,25.5531844 64.4159649,25.8044234 64.7177075,25.8044234 C64.8685788,25.8044234 64.9692662,25.8044234 65.1703214,25.7542396 L65.6226156,28.4942155 C65.2205052,28.6703385 64.592088,28.7959581 63.7622959,28.7959581 C61.2233752,28.7959581 60.3689706,27.1370132 60.3689706,24.6230246 L60.3689706,10.8726413" id="Fill-13" fill="#465191"></path>
                <path d="M67.5583709,28.4942155 L71.2537584,28.4942155 L71.2537584,16.0259185 L67.5583709,16.0259185 L67.5583709,28.4942155 Z M67.2566283,12.2550954 C67.2566283,11.1238804 68.161856,10.3445919 69.3934387,10.3445919 C70.6505929,10.3445919 71.5302492,11.1238804 71.5302492,12.2550954 C71.5302492,13.3863104 70.6505929,14.1908507 69.3934387,14.1908507 C68.161856,14.1908507 67.2566283,13.3863104 67.2566283,12.2550954 L67.2566283,12.2550954 Z" id="Fill-14" fill="#465191"></path>
                <polyline id="Fill-15" fill="#465191" points="74.4965321 10.8726413 78.0912322 10.8726413 78.0912322 20.9778209 78.1915999 20.9778209 82.1382265 16.0259185 86.1602887 16.0259185 81.7863001 21.153944 86.487283 28.4942155 82.4901529 28.4942155 79.6747414 23.6426809 78.0912322 25.4272452 78.0912322 28.4942155 74.4965321 28.4942155 74.4965321 10.8726413"></polyline>
                <path d="M89.6296889,23.8942396 C90.7864753,24.8995154 92.2945489,25.6033683 93.6520708,25.6033683 C95.1853961,25.6033683 95.9397525,24.9998831 95.9397525,24.0198591 C95.9397525,22.9890119 95.0095927,22.6623372 93.5766352,22.058852 L91.4650765,21.153944 C89.7556281,20.4753428 88.1468672,19.0676371 88.1468672,16.6795876 C88.1468672,13.9645437 90.5851005,11.8028012 93.9787455,11.8028012 C95.8639973,11.8028012 97.8499364,12.5568379 99.2579618,13.9645437 L97.3973226,16.3024093 C96.3166111,15.4729369 95.2860835,14.9950713 93.9787455,14.9950713 C92.721911,14.9950713 91.8924386,15.5483726 91.8924386,16.4782128 C91.8924386,17.4838082 92.97315,17.8357347 94.4061076,18.413968 L96.4924145,19.2686922 C98.4783537,20.0729129 99.7355078,21.405183 99.7355078,23.7181165 C99.7355078,26.4331603 97.4730778,28.7959581 93.5766352,28.7959581 C91.4398247,28.7959581 89.1773947,27.9917374 87.4928785,26.4331603 L89.6296889,23.8942396" id="Fill-16" fill="#E16240"></path>
                <path d="M107.553645,25.8044234 C109.061719,25.8044234 109.841007,24.4219694 109.841007,22.2602268 C109.841007,20.0981646 109.061719,18.7157106 107.553645,18.7157106 C106.02,18.7157106 105.265644,20.0981646 105.265644,22.2602268 C105.265644,24.4219694 106.02,25.8044234 107.553645,25.8044234 Z M107.553645,15.724176 C110.695731,15.724176 113.61183,18.1122255 113.61183,22.2602268 C113.61183,26.4079086 110.695731,28.7959581 107.553645,28.7959581 C104.386307,28.7959581 101.469888,26.4079086 101.469888,22.2602268 C101.469888,18.1122255 104.386307,15.724176 107.553645,15.724176 L107.553645,15.724176 Z" id="Fill-17" fill="#E16240"></path>
                <path d="M116.025131,16.0259185 L119.720199,16.0259185 L119.720199,23.2907544 C119.720199,25.0756384 120.197745,25.6535522 121.278776,25.6535522 C122.208936,25.6535522 122.761918,25.2517615 123.491023,24.2710981 L123.491023,16.0259185 L127.18641,16.0259185 L127.18641,28.4942155 L124.169624,28.4942155 L123.893133,26.759835 L123.818017,26.759835 C122.761918,28.0166695 121.605771,28.7959581 119.896322,28.7959581 C117.181279,28.7959581 116.025131,26.8854545 116.025131,23.7683004 L116.025131,16.0259185" id="Fill-18" fill="#E16240"></path>
                <path d="M130.429503,16.0259185 L133.44597,16.0259185 L133.697529,18.2129129 L133.797897,18.2129129 C134.702805,16.5287163 136.060327,15.724176 137.342413,15.724176 C138.046266,15.724176 138.473628,15.8248634 138.825554,15.9757347 L138.222069,19.1680048 C137.769775,19.0423853 137.392597,18.9669496 136.864867,18.9669496 C135.934707,18.9669496 134.77824,19.5704348 134.124891,21.2546314 L134.124891,28.4942155 L130.429503,28.4942155 L130.429503,16.0259185" id="Fill-19" fill="#E16240"></path>
                <path d="M145.940158,15.724176 C147.473483,15.724176 148.75557,16.3024093 149.585042,17.1571335 L147.900846,19.4444956 C147.29768,18.9416979 146.744379,18.7157106 146.166465,18.7157106 C144.381581,18.7157106 143.250046,20.0981646 143.250046,22.2602268 C143.250046,24.4219694 144.431765,25.8044234 146.040526,25.8044234 C146.945434,25.8044234 147.674539,25.3770614 148.278024,24.8995154 L149.761165,27.237381 C148.554195,28.2931603 146.970686,28.7959581 145.613164,28.7959581 C142.144403,28.7959581 139.454291,26.4079086 139.454291,22.2602268 C139.454291,18.1122255 142.49601,15.724176 145.940158,15.724176" id="Fill-20" fill="#E16240"></path>
                <path d="M158.534394,20.9778209 C158.534394,19.545183 157.930909,18.5395876 156.448087,18.5395876 C155.291621,18.5395876 154.286025,19.3188761 154.034786,20.9778209 L158.534394,20.9778209 Z M156.372332,15.724176 C159.916848,15.724176 161.6768,18.3136003 161.6768,21.7072452 C161.6768,22.3609142 161.601364,22.9637601 161.525609,23.2658223 L154.060038,23.2658223 C154.386393,25.1510741 155.643547,25.9805465 157.302492,25.9805465 C158.232971,25.9805465 159.087376,25.7040557 159.992284,25.1510741 L161.224186,27.3882523 C159.9421,28.2679086 158.283155,28.7959581 156.799694,28.7959581 C153.230246,28.7959581 150.49027,26.3829765 150.49027,22.2602268 C150.49027,18.2129129 153.381117,15.724176 156.372332,15.724176 L156.372332,15.724176 Z" id="Fill-21" fill="#E16240"></path>
            </g>
            <text id="360°-Profile" font-family="Helvetica" font-size="14" font-weight="normal" fill="#4A545A">
                <tspan x="201.25" y="30">360° PROFILE</tspan>
            </text>
            <line x1="177.5" y1="11" x2="177.5" y2="33" id="Line-6" stroke="#4A545A" stroke-linecap="round"></line>
        </g>
    </g>
</svg>