<?xml version="1.0" encoding="UTF-8"?>
<svg width="28px" height="28px" viewBox="0 0 28 28" version="1.1" xmlns="http://www.w3.org/2000/svg" xmlns:xlink="http://www.w3.org/1999/xlink">
    <!-- Generator: Sketch 63.1 (92452) - https://sketch.com -->
    <title>Group 4</title>
    <desc>Created with Sketch.</desc>
    <g id="Web-Redesign-2020" stroke="none" stroke-width="1" fill="none" fill-rule="evenodd">
        <g id="Candidate-Profile_standalone" transform="translate(-412.000000, -214.000000)">
            <g id="Group-4" transform="translate(412.000000, 214.000000)">
                <g id="Group-24">
                    <g id="Group-3-Copy-2" transform="translate(0.000000, 0.000000)" fill="#F9683D">
                        <circle id="Oval" cx="13.8629283" cy="13.8629283" r="13.8629283"></circle>
                    </g>
                    <g id="noun_Social-Media_2170047" transform="translate(6.099688, 5.545171)" fill="#FFFFFF" fill-rule="nonzero">
                        <path d="M1.8466898,0.039836147 C0.853064909,0.039836147 0.0398362153,0.853073923 0.0398362153,1.84668748 C0.0398362153,2.84030786 0.853064909,3.6535388 1.8466898,3.65354563 C2.2324531,3.65354563 2.59022814,3.52993977 2.88456463,3.32181756 L4.20300762,4.64025501 C3.41220198,5.53323564 2.93080203,6.70607769 2.93080203,7.98999429 C2.93080203,9.25655826 3.39977085,10.4146632 4.17160449,11.3030274 L2.84468733,12.6299329 C2.55817455,12.4386784 2.21501696,12.3264429 1.8466898,12.3264429 C0.853064909,12.3264429 0.0398362153,13.1396807 0.0398362153,14.1332943 C0.0398362153,15.1269078 0.853064909,15.9401456 1.8466898,15.9401456 C2.84031476,15.9401456 3.65354345,15.1269078 3.65354345,14.1332943 C3.65354345,13.7680082 3.54265684,13.4277848 3.35429237,13.1426992 L4.68296214,11.8136767 C5.5705248,12.5823685 6.72629715,13.0491821 7.98999224,13.0491821 C9.2739061,13.0491821 10.4467529,12.5677885 11.3397363,11.7769773 L12.6581608,13.0954148 C12.4500474,13.3897606 12.3264409,13.7475416 12.3264409,14.1332943 C12.3264409,15.1269078 13.1396691,15.9401456 14.1332943,15.9401456 C15.1269194,15.9401456 15.9401476,15.1269078 15.9401476,14.1332943 C15.9401476,13.1396807 15.1269194,12.3264429 14.1332943,12.3264429 C13.7855295,12.3264429 13.461127,12.4278407 13.1846965,12.5999397 L11.8454379,11.2603253 C12.5952461,10.3776975 13.0491821,9.23624866 13.0491821,7.98999429 C13.0491821,6.72630535 12.5823637,5.57053593 11.8136739,4.68295708 L13.1423434,3.35428287 C13.427483,3.54276474 13.7678942,3.65354563 14.1332943,3.65354563 C15.1269194,3.6535388 15.9401476,2.84030786 15.9401476,1.84668748 C15.9401476,0.853073923 15.1269194,0.039836147 14.1332943,0.039836147 C13.1396691,0.039836147 12.3264409,0.853073923 12.3264409,1.84668748 C12.3264409,2.21501245 12.4386825,2.55817919 12.6299377,2.84469211 L11.3030206,4.17160442 C10.4146632,3.39977802 9.25656031,2.93079964 7.98999224,2.93079964 C6.74373309,2.93079964 5.60228925,3.38474045 4.71965935,4.13454998 L3.38040141,2.79529074 C3.55243194,2.51888482 3.65354345,2.19438188 3.65354345,1.84668748 C3.65354345,0.853073923 2.84031476,0.039836147 1.8466898,0.039836147 L1.8466898,0.039836147 Z M1.8466898,0.762575313 C2.44970918,0.762575313 2.93080203,1.24367527 2.93080203,1.84668748 C2.93080203,2.44970651 2.44970918,2.93079964 1.8466898,2.93079964 C1.24367049,2.93079964 0.762577635,2.44970651 0.762577635,1.84668748 C0.762577635,1.24367527 1.24367049,0.762575313 1.8466898,0.762575313 Z M14.1332943,0.762575313 C14.736314,0.762575313 15.2174064,1.24367527 15.2174064,1.84668748 C15.2174064,2.44970651 14.736314,2.93079964 14.1332943,2.93079964 C13.5302752,2.93079964 13.0491821,2.44970651 13.0491821,1.84668748 C13.0491821,1.24367527 13.5302752,0.762575313 14.1332943,0.762575313 Z M7.98999224,3.65354563 C10.3892229,3.65354563 12.3264409,5.59075676 12.3264409,7.98999429 C12.3264409,9.44401576 11.6142335,10.727427 10.5195868,11.5137105 L10.5195868,11.1145797 C10.5195868,9.6947581 9.38983406,8.53205037 7.98999224,8.53205037 C6.59011422,8.53205037 5.46039703,9.6947581 5.46039703,11.1145797 L5.46039703,11.5137105 C4.36575092,10.727427 3.65354345,9.44401576 3.65354345,7.98999429 C3.65354345,5.59075676 5.59076154,3.65354563 7.98999224,3.65354563 Z M7.98999224,8.53205037 C8.98361672,8.53205037 9.79684562,7.71881259 9.79684562,6.72519221 C9.79684562,5.73157183 8.98361672,4.91834088 7.98999224,4.91834088 C6.99636708,4.91834088 6.18313886,5.73157183 6.18313886,6.72519221 C6.18313886,7.71881259 6.99636708,8.53205037 7.98999224,8.53205037 Z M7.98999224,5.64108005 C8.59301128,5.64108005 9.0741044,6.12217317 9.0741044,6.72519221 C9.0741044,7.32821808 8.59301128,7.80930437 7.98999224,7.80930437 C7.38697252,7.80930437 6.90588007,7.32821808 6.90588007,6.72519221 C6.90588007,6.12217317 7.38697252,5.64108005 7.98999224,5.64108005 Z M7.98999224,9.25478953 C8.99247058,9.25478953 9.79684562,10.0734154 9.79684562,11.1145797 L9.79684562,11.933308 C9.24696617,12.1850201 8.63547228,12.3264429 7.98999224,12.3264429 C7.34451151,12.3264429 6.73301831,12.1850201 6.18313886,11.933308 L6.18313886,11.1145797 C6.18313886,10.0734154 6.9874777,9.25478953 7.98999224,9.25478953 Z M1.8466898,13.0491821 C2.44970918,13.0491821 2.93080203,13.5302752 2.93080203,14.1332943 C2.93080203,14.7363133 2.44970918,15.2174064 1.8466898,15.2174064 C1.24367049,15.2174064 0.762577635,14.7363133 0.762577635,14.1332943 C0.762577635,13.5302752 1.24367049,13.0491821 1.8466898,13.0491821 Z M14.1332943,13.0491821 C14.736314,13.0491821 15.2174064,13.5302752 15.2174064,14.1332943 C15.2174064,14.7363133 14.736314,15.2174064 14.1332943,15.2174064 C13.5302752,15.2174064 13.0491821,14.7363133 13.0491821,14.1332943 C13.0491821,13.5302752 13.5302752,13.0491821 14.1332943,13.0491821 Z" id="Shape"></path>
                    </g>
                </g>
            </g>
        </g>
    </g>
</svg>