<?xml version="1.0" encoding="UTF-8"?>
<svg width="28px" height="28px" viewBox="0 0 28 28" version="1.1" xmlns="http://www.w3.org/2000/svg" xmlns:xlink="http://www.w3.org/1999/xlink">
    <!-- Generator: Sketch 63.1 (92452) - https://sketch.com -->
    <title>Combined Shape 13</title>
    <desc>Created with Sketch.</desc>
    <g id="Web-Redesign-2020" stroke="none" stroke-width="1" fill="none" fill-rule="evenodd">
        <g id="Candidate-Profile_standalone" transform="translate(-362.000000, -214.000000)" fill="#FFA200">
            <g id="Combined-Shape-13" transform="translate(362.000000, 214.000000)">
                <path d="M14,0 C21.7319865,0 28,6.2680135 28,14 C28,21.7319865 21.7319865,28 14,28 C6.2680135,28 0,21.7319865 0,14 C0,6.2680135 6.2680135,0 14,0 Z M7.68243243,14.472973 L6.12162162,14.472973 L6.12162162,20.7364865 L20.2094595,20.7364865 L20.2094595,14.472973 L18.6486486,14.472973 L18.6486486,19.1756757 L7.68243243,19.1756757 L7.68243243,14.472973 Z M17.0675676,16.0337838 L9.24324324,16.0337838 L9.24324324,17.5945946 L17.0675676,17.5945946 L17.0675676,16.0337838 Z M9.72972973,12.4864865 L9.40540541,14.027027 L17.0675676,15.6283784 L17.3918919,14.0878378 L9.72972973,12.4864865 Z M11.0675676,8.93918919 L10.4189189,10.3783784 L17.5135135,13.6824324 L18.1621622,12.2635135 L11.0675676,8.93918919 Z M13.3783784,5.69594595 L12.3851351,6.89189189 L18.4054054,11.8986486 L19.3986486,10.7027027 L13.3783784,5.69594595 Z M16.277027,3.18243243 L15.0202703,4.11486486 L19.6824324,10.3986486 L20.9391892,9.46621622 L16.277027,3.18243243 Z" id="Combined-Shape"></path>
            </g>
        </g>
    </g>
</svg>