<?xml version="1.0" encoding="UTF-8"?>
<svg width="36px" height="27px" viewBox="0 0 36 27" version="1.1" xmlns="http://www.w3.org/2000/svg" xmlns:xlink="http://www.w3.org/1999/xlink">
    <!-- Generator: Sketch 63.1 (92452) - https://sketch.com -->
    <title>noun_Travel_152356 2</title>
    <desc>Created with Sketch.</desc>
    <g id="Web-Redesign-2020" stroke="none" stroke-width="1" fill="none" fill-rule="evenodd">
        <g id="Candidate-Profile_standalone" transform="translate(-829.000000, -228.000000)" fill-rule="nonzero">
            <g id="Group-8" transform="translate(719.000000, 227.000000)">
                <g id="noun_Travel_152356-2" transform="translate(110.148760, 1.647059)">
                    <g id="noun_Travel_152356">
                        <g id="Group">
                            <path d="M16.969697,26.1333333 C10.0545455,26.1333333 4.45454545,20.3356863 4.45454545,13.1764706 C4.45454545,6.0172549 10.0545455,0.219607843 16.969697,0.219607843 C19.8545455,0.219607843 22.6969697,1.27372549 24.9454545,3.16235294 C26.3454545,4.34823529 27.4909091,5.8854902 28.2545455,7.5545098 C28.4242424,7.86196078 28.2545455,8.2572549 27.9575758,8.43294118 C27.6606061,8.60862745 27.2787879,8.43294118 27.1090909,8.1254902 C26.3878788,6.63215686 25.369697,5.27058824 24.1393939,4.17254902 C22.1454545,2.45960784 19.6,1.49333333 16.969697,1.49333333 C10.7757576,1.49333333 5.72727273,6.72 5.72727273,13.132549 C5.72727273,19.545098 10.7757576,24.8156863 16.969697,24.8156863 C21.3393939,24.8156863 25.3272727,22.1803922 27.1939394,18.0517647 C27.3212121,17.7003922 27.7030303,17.5686275 28.0424242,17.7443137 C28.3818182,17.8760784 28.5090909,18.2713725 28.3393939,18.6227451 C26.3030303,23.1905882 21.8484848,26.1333333 16.969697,26.1333333 Z" id="Path" fill="#4C5459"></path>
                            <path d="M7.50909091,21.5654902 C3.77575758,21.5654902 1.14545455,20.5113725 0.424242424,18.534902 C-0.339393939,16.3827451 1.18787879,13.6156863 4.75151515,10.8486275 C5.04848485,10.6290196 5.43030303,10.6729412 5.64242424,10.9803922 C5.85454545,11.2878431 5.81212121,11.6831373 5.51515152,11.9027451 C2.54545455,14.2305882 1.1030303,16.5584314 1.61212121,18.0956863 C2.46060606,20.467451 8.31515152,21.3019608 16.7151515,18.6227451 C17.0545455,18.534902 17.3939394,18.7105882 17.5212121,19.0619608 C17.6060606,19.4133333 17.4363636,19.7647059 17.0969697,19.8964706 C13.5333333,21.0384314 10.2242424,21.5654902 7.50909091,21.5654902 Z" id="Path" fill="#4C5459"></path>
                            <path d="M32.9212121,6.93960784 C32.6666667,6.93960784 32.4121212,6.76392157 32.3272727,6.50039216 C31.7757576,4.96313725 29.230303,4.17254902 25.4969697,4.34823529 L24.5212121,4.34823529 C24.1818182,4.34823529 23.8848485,4.04078431 23.8848485,3.68941176 C23.8848485,3.33803922 24.1818182,3.03058824 24.5212121,3.03058824 L25.4545455,3.03058824 C29.8666667,2.81098039 32.7515152,3.86509804 33.5151515,6.06117647 C33.6424242,6.41254902 33.4727273,6.76392157 33.1333333,6.89568627 C33.0484848,6.93960784 33.0060606,6.93960784 32.9212121,6.93960784 Z" id="Path" fill="#4C5459"></path>
                            <g transform="translate(13.151515, 16.690196)" fill="#4855B5" id="Path">
                                <path d="M3.81818182,3.11843137 C3.73333333,3.11843137 3.64848485,3.11843137 3.56363636,3.0745098 L0.466666667,1.58117647 C0.127272727,1.44941176 1.38777878e-17,1.05411765 0.16969697,0.702745098 C0.339393939,0.351372549 0.678787879,0.219607843 1.01818182,0.395294118 L4.11515152,1.88862745 C4.45454545,2.02039216 4.58181818,2.41568627 4.41212121,2.76705882 C4.28484848,2.98666667 4.07272727,3.11843137 3.81818182,3.11843137 Z"></path>
                                <path d="M2.37575758,6.32470588 C2.29090909,6.32470588 2.20606061,6.32470588 2.12121212,6.28078431 C1.78181818,6.14901961 1.65454545,5.75372549 1.82424242,5.40235294 L3.26666667,2.19607843 C3.43636364,1.84470588 3.77575758,1.71294118 4.11515152,1.88862745 C4.45454545,2.02039216 4.58181818,2.41568627 4.41212121,2.76705882 L2.96969697,5.92941176 C2.84242424,6.19294118 2.63030303,6.32470588 2.37575758,6.32470588 Z"></path>
                            </g>
                        </g>
                        <path d="M20.6181818,18.4470588 C20.5333333,18.4470588 20.4484848,18.4470588 20.3636364,18.4031373 L15.2727273,15.987451 C15.0181818,15.8556863 14.8484848,15.5482353 14.9333333,15.2407843 C15.0181818,14.9333333 15.230303,14.7137255 15.5272727,14.7137255 L20.5757576,14.5380392 L22.4,13.3960784 L19.5575758,10.2337255 C19.430303,10.1019608 19.3878788,9.92627451 19.3878788,9.75058824 C19.3878788,9.57490196 19.4727273,9.39921569 19.6,9.26745098 C19.6848485,9.22352941 20.3212121,8.65254902 21.5939394,8.65254902 C23.1636364,8.65254902 24.9878788,9.48705882 27.0242424,11.0682353 L31.3515152,9.00392157 C31.6060606,8.87215686 31.9878788,8.82823529 32.4121212,8.82823529 C33.2181818,8.82823529 34.7030303,9.04784314 35.0848485,9.97019608 C35.2545455,10.3654902 35.4242424,11.0682353 34.6606061,11.7270588 C34.2787879,12.0345098 33.6848485,12.3419608 32.9636364,12.6933333 L20.8727273,18.4031373 C20.7878788,18.4470588 20.7030303,18.4470588 20.6181818,18.4470588 Z M18.2424242,15.9435294 L20.6181818,17.0415686 L32.369697,11.507451 C33.0060606,11.2 33.8121212,10.8486275 33.8969697,10.6290196 C33.8969697,10.6290196 33.8969697,10.585098 33.8545455,10.5411765 C33.769697,10.4094118 33.1333333,10.1898039 32.3272727,10.1898039 C32.030303,10.1898039 31.8606061,10.2337255 31.7757576,10.2776471 L27.1090909,12.4737255 C26.8969697,12.5615686 26.6424242,12.5615686 26.430303,12.3858824 C24.0545455,10.4094118 22.4424242,10.0141176 21.5090909,10.0141176 C21.3393939,10.0141176 21.169697,10.0141176 21,10.0580392 L23.7575758,13.0886275 C23.8848485,13.2203922 23.969697,13.44 23.9272727,13.6156863 C23.8848485,13.7913725 23.8,13.9670588 23.630303,14.0988235 L21,15.7678431 C20.9151515,15.8117647 20.7878788,15.8556863 20.7030303,15.8556863 L18.2424242,15.9435294 Z" id="Shape" fill="#4C5459"></path>
                    </g>
                </g>
            </g>
        </g>
    </g>
</svg>