<?xml version="1.0" encoding="UTF-8"?>
<svg width="30px" height="26px" viewBox="0 0 30 26" version="1.1" xmlns="http://www.w3.org/2000/svg" xmlns:xlink="http://www.w3.org/1999/xlink">
    <!-- Generator: Sketch 63.1 (92452) - https://sketch.com -->
    <title>noun_Video Call_126081 2</title>
    <desc>Created with Sketch.</desc>
    <g id="Web-Redesign-2020" stroke="none" stroke-width="1" fill="none" fill-rule="evenodd">
        <g id="Candidate-Profile_standalone" transform="translate(-885.000000, -228.000000)" fill="#4C5459" fill-rule="nonzero">
            <g id="Group-8" transform="translate(719.000000, 227.000000)">
                <g id="noun_Video-Call_126081-2" transform="translate(165.223140, 0.000000)">
                    <g id="noun_Video-Call_126081" transform="translate(1.619835, 1.647059)">
                        <path d="M22.4231405,19.1260504 L22.9438017,19.1260504 L26.3801653,19.1260504 C26.831405,19.1260504 27.2132231,18.7563025 27.2132231,18.3193277 L27.2132231,2.42016807 C27.2132231,1.98319328 26.831405,1.61344538 26.3801653,1.61344538 L2.49917355,1.61344538 C2.04793388,1.61344538 1.6661157,1.98319328 1.6661157,2.42016807 L1.6661157,18.3529412 C1.6661157,18.789916 2.04793388,19.1596639 2.49917355,19.1596639 L6.24793388,19.1596639 L6.76859504,19.1596639 L22.4231405,19.1260504 Z M28.8793388,2.42016807 L28.8793388,18.3529412 C28.8793388,19.6638655 27.768595,20.7731092 26.3801653,20.7731092 L22.9438017,20.7731092 L21.2082645,20.7731092 L17.5636364,20.7731092 L17.5636364,23.2268908 L21.2429752,23.2268908 C21.4165289,23.2268908 21.5553719,23.3613445 21.5553719,23.5294118 L21.5553719,24 C21.5553719,24.1680672 21.4165289,24.302521 21.2429752,24.302521 L7.63636364,24.302521 C7.46280992,24.302521 7.32396694,24.1680672 7.32396694,24 L7.32396694,23.4957983 C7.32396694,23.3277311 7.46280992,23.1932773 7.63636364,23.1932773 L11.3157025,23.1932773 L11.3157025,20.7394958 L7.94876033,20.7394958 L6.21322314,20.7394958 L2.49917355,20.7394958 C1.14545455,20.7394958 5.91923205e-14,19.6638655 5.91923205e-14,18.3193277 L5.91923205e-14,2.42016807 C5.91923205e-14,1.07563025 1.1107438,-2.92576421e-14 2.49917355,-2.92576421e-14 L26.414876,-2.92576421e-14 C27.768595,-2.92576421e-14 28.8793388,1.07563025 28.8793388,2.42016807 Z" id="Shape" stroke="#FFFFFF" stroke-width="0.2"></path>
                        <path d="M14.5644405,4.58823529 C16.9839298,4.58823529 18.9520661,6.49692198 18.9520661,8.82352941 C18.9520661,11.160246 16.9734718,13.0588235 14.5644405,13.0588235 C12.1678279,13.0588235 10.2049587,11.1450652 10.2049587,8.82352941 C10.2049587,6.47475252 12.1397777,4.58823529 14.5644405,4.58823529 Z M14.5644405,6 C12.9471679,6 11.6628099,7.25229463 11.6628099,8.82352941 C11.6628099,10.3675053 12.9751994,11.6470588 14.5644405,11.6470588 C16.1712965,11.6470588 17.4942149,10.3776409 17.4942149,8.82352941 C17.4942149,7.27615975 16.1783068,6 14.5644405,6 Z" id="Path"></path>
                        <path d="M6.02514862,19.6467614 C11.8970854,13.6827343 17.1692904,13.6827343 22.2782707,19.6119089 L23.3976199,18.7074188 C17.715847,12.1134955 11.4278108,12.1134955 4.97001855,18.6725663 L6.02514862,19.6467614 Z" id="Path-2"></path>
                    </g>
                </g>
            </g>
        </g>
    </g>
</svg>