<?xml version="1.0" encoding="UTF-8"?>
<svg width="30px" height="23px" viewBox="0 0 30 23" version="1.1" xmlns="http://www.w3.org/2000/svg" xmlns:xlink="http://www.w3.org/1999/xlink">
    <!-- Generator: Sketch 63.1 (92452) - https://sketch.com -->
    <title>Shape 2</title>
    <desc>Created with Sketch.</desc>
    <g id="Web-Redesign-2020" stroke="none" stroke-width="1" fill="none" fill-rule="evenodd">
        <g id="Candidate-Profile_standalone" transform="translate(-719.000000, -228.000000)" fill="#4C5459" fill-rule="nonzero">
            <g id="Group-8" transform="translate(719.000000, 227.000000)">
                <g id="Shape-2" transform="translate(0.000000, 1.647059)">
                    <path d="M2.98196844,0 C1.38869144,0 0,1.36334728 0,3.01102941 L0,18.4007353 C0,20.0484174 1.38869144,21.4117647 2.98196844,21.4117647 L26.1750563,21.4117647 C27.7683334,21.4117647 29.1570248,20.0484174 29.1570248,18.4007353 L29.1570248,3.01102941 C29.1570248,1.36334728 27.7683334,0 26.1750563,0 L2.98196844,0 Z M2.98196844,1.33823529 L26.1750563,1.33823529 C26.9474796,1.33823529 27.8317055,2.19414784 27.8317055,3.01102941 L27.8317055,8.69852941 L1.32531931,8.69852941 L1.32531931,3.01102941 C1.32531931,2.19414784 2.20954518,1.33823529 2.98196844,1.33823529 Z M4.63861758,4.68382353 C4.08965243,4.68382353 3.6446281,5.13318487 3.6446281,5.6875 C3.6446281,6.24181512 4.08965243,6.69117647 4.63861758,6.69117647 C5.18758273,6.69117647 5.63260706,6.24181512 5.63260706,5.6875 C5.63260706,5.13318487 5.18758273,4.68382353 4.63861758,4.68382353 Z M24.5184072,4.68382353 C23.9694421,4.68382353 23.5244177,5.13318487 23.5244177,5.6875 C23.5244177,6.24181512 23.9694421,6.69117647 24.5184072,6.69117647 C25.0673724,6.69117647 25.5123967,6.24181512 25.5123967,5.6875 C25.5123967,5.13318487 25.0673724,4.68382353 24.5184072,4.68382353 Z M8.22112134,5.01838235 C7.98434206,5.02954163 7.7714507,5.16742101 7.66266008,5.38007056 C7.55386946,5.59272011 7.56571206,5.84782431 7.69372584,6.04926548 C7.82173962,6.25070665 8.04647084,6.36787255 8.28324568,6.35661765 L20.8737791,6.35661765 C21.1127569,6.36002862 21.3350413,6.23324678 21.4555159,6.02481898 C21.5759906,5.81639118 21.5759906,5.55860882 21.4555159,5.35018102 C21.3350413,5.14175322 21.1127569,5.01497138 20.8737791,5.01838235 L8.28324568,5.01838235 C8.26254895,5.01740176 8.24181807,5.01740176 8.22112134,5.01838235 Z M1.32531931,10.0367647 L27.8317055,10.0367647 L27.8317055,18.4007353 C27.8317055,19.2176169 26.9474796,20.0735294 26.1750563,20.0735294 L2.98196844,20.0735294 C2.20954518,20.0735294 1.32531931,19.2176169 1.32531931,18.4007353 L1.32531931,10.0367647 Z M3.6446281,11.375 C3.25947175,11.375 2.88866994,11.7120677 2.7748873,11.9813879 C2.66110466,12.2507081 2.65063862,12.4809578 2.65063862,12.7132353 L2.65063862,17.3970588 C2.65063862,17.629336 2.66110533,17.8595861 2.7748873,18.1289062 C2.88866961,18.3982264 3.25947142,18.7352941 3.6446281,18.7352941 L8.94590533,18.7352941 C9.33106201,18.7352941 9.70186382,18.3982264 9.81564613,18.1289062 C9.92942844,17.8595861 9.93989482,17.629336 9.93989482,17.3970588 L9.93989482,12.7132353 C9.93989482,12.4809578 9.92942877,12.2507081 9.81564613,11.9813879 C9.70186349,11.7120677 9.33106168,11.375 8.94590533,11.375 L3.6446281,11.375 Z M3.97595793,12.7132353 L8.61457551,12.7132353 L8.61457551,17.3970588 L3.97595793,17.3970588 L3.97595793,12.7132353 Z M12.5284091,12.7132353 C12.2916298,12.7243946 12.0787385,12.8622739 11.9699478,13.0749235 C11.8611572,13.287573 11.8729998,13.5426773 12.0010136,13.7441184 C12.1290274,13.9455596 12.3537586,14.0627255 12.5905334,14.0514706 L25.1810669,14.0514706 C25.4200446,14.0548816 25.642329,13.9280997 25.7628037,13.7196719 C25.8832784,13.5112441 25.8832784,13.2534618 25.7628037,13.045034 C25.642329,12.8366062 25.4200446,12.7098243 25.1810669,12.7132353 L12.5905334,12.7132353 C12.5698367,12.7122547 12.5491058,12.7122547 12.5284091,12.7132353 Z M12.5284091,16.0588235 C12.2916298,16.0699828 12.0787385,16.2078622 11.9699478,16.4205117 C11.8611572,16.6331613 11.8729998,16.8882655 12.0010136,17.0897067 C12.1290274,17.2911478 12.3537586,17.4083137 12.5905334,17.3970588 L25.1810669,17.3970588 C25.4200446,17.4004698 25.642329,17.273688 25.7628037,17.0652602 C25.8832784,16.8568324 25.8832784,16.59905 25.7628037,16.3906222 C25.642329,16.1821944 25.4200446,16.0554126 25.1810669,16.0588235 L12.5905334,16.0588235 C12.5698367,16.0578429 12.5491058,16.0578429 12.5284091,16.0588235 Z" id="Shape"></path>
                </g>
            </g>
        </g>
    </g>
</svg>