<?xml version="1.0" encoding="UTF-8"?>
<svg width="35px" height="25px" viewBox="0 0 35 25" version="1.1" xmlns="http://www.w3.org/2000/svg" xmlns:xlink="http://www.w3.org/1999/xlink">
    <!-- Generator: Sketch 63.1 (92452) - https://sketch.com -->
    <title>Shape 3</title>
    <desc>Created with Sketch.</desc>
    <g id="Web-Redesign-2020" stroke="none" stroke-width="1" fill="none" fill-rule="evenodd">
        <g id="Candidate-Profile_standalone" transform="translate(-364.000000, -2053.000000)" fill="#F25832" fill-rule="nonzero">
            <g id="Shape-3" transform="translate(364.000000, 2053.000000)">
                <path d="M3.57954545,0 C1.6669808,0 0,1.59182031 0,3.515625 L0,21.484375 C0,23.4081797 1.6669808,25 3.57954545,25 L31.4204545,25 C33.3330192,25 35,23.4081797 35,21.484375 L35,3.515625 C35,1.59182031 33.3330192,0 31.4204545,0 L3.57954545,0 Z M3.57954545,1.5625 L31.4204545,1.5625 C32.347669,1.5625 33.4090909,2.56184844 33.4090909,3.515625 L33.4090909,10.15625 L1.59090909,10.15625 L1.59090909,3.515625 C1.59090909,2.56184844 2.65233102,1.5625 3.57954545,1.5625 Z M5.56818182,5.46875 C4.9092058,5.46875 4.375,5.99341641 4.375,6.640625 C4.375,7.28783359 4.9092058,7.8125 5.56818182,7.8125 C6.22715784,7.8125 6.76136364,7.28783359 6.76136364,6.640625 C6.76136364,5.99341641 6.22715784,5.46875 5.56818182,5.46875 Z M29.4318182,5.46875 C28.7728422,5.46875 28.2386364,5.99341641 28.2386364,6.640625 C28.2386364,7.28783359 28.7728422,7.8125 29.4318182,7.8125 C30.0907942,7.8125 30.625,7.28783359 30.625,6.640625 C30.625,5.99341641 30.0907942,5.46875 29.4318182,5.46875 Z M9.86860795,5.859375 C9.58437886,5.87240437 9.32882475,6.03338991 9.19823283,6.28167579 C9.06764092,6.52996167 9.08185673,6.82781685 9.23552407,7.06301601 C9.38919141,7.29821518 9.65895805,7.43501603 9.94318182,7.421875 L25.0568182,7.421875 C25.3436863,7.42585759 25.6105158,7.27782934 25.7551332,7.03447271 C25.8997506,6.79111607 25.8997506,6.49013393 25.7551332,6.24677729 C25.6105158,6.00342066 25.3436863,5.85539241 25.0568182,5.859375 L9.94318182,5.859375 C9.91833753,5.85823008 9.89345224,5.85823008 9.86860795,5.859375 Z M1.59090909,11.71875 L33.4090909,11.71875 L33.4090909,21.484375 C33.4090909,22.4381516 32.347669,23.4375 31.4204545,23.4375 L3.57954545,23.4375 C2.65233102,23.4375 1.59090909,22.4381516 1.59090909,21.484375 L1.59090909,11.71875 Z M4.375,13.28125 C3.91265955,13.28125 3.46755023,13.6748043 3.33096591,13.9892578 C3.19438159,14.3037113 3.18181818,14.5725469 3.18181818,14.84375 L3.18181818,20.3125 C3.18181818,20.5837027 3.19438239,20.8525387 3.33096591,21.1669922 C3.46754983,21.4814457 3.91265915,21.875 4.375,21.875 L10.7386364,21.875 C11.2009772,21.875 11.6460865,21.4814457 11.7826705,21.1669922 C11.9192544,20.8525387 11.9318182,20.5837027 11.9318182,20.3125 L11.9318182,14.84375 C11.9318182,14.5725469 11.9192548,14.3037113 11.7826705,13.9892578 C11.6460861,13.6748043 11.2009768,13.28125 10.7386364,13.28125 L4.375,13.28125 Z M4.77272727,14.84375 L10.3409091,14.84375 L10.3409091,20.3125 L4.77272727,20.3125 L4.77272727,14.84375 Z M15.0390625,14.84375 C14.7548334,14.8567794 14.4992793,15.0177649 14.3686874,15.2660508 C14.2380955,15.5143367 14.2523113,15.8121919 14.4059786,16.047391 C14.559646,16.2825902 14.8294126,16.419391 15.1136364,16.40625 L30.2272727,16.40625 C30.5141409,16.4102326 30.7809703,16.2622043 30.9255878,16.0188477 C31.0702052,15.7754911 31.0702052,15.4745089 30.9255878,15.2311523 C30.7809703,14.9877957 30.5141409,14.8397674 30.2272727,14.84375 L15.1136364,14.84375 C15.0887921,14.8426051 15.0639068,14.8426051 15.0390625,14.84375 Z M15.0390625,18.75 C14.7548334,18.7630294 14.4992793,18.9240149 14.3686874,19.1723008 C14.2380955,19.4205867 14.2523113,19.7184419 14.4059786,19.953641 C14.559646,20.1888402 14.8294126,20.325641 15.1136364,20.3125 L30.2272727,20.3125 C30.5141409,20.3164826 30.7809703,20.1684543 30.9255878,19.9250977 C31.0702052,19.6817411 31.0702052,19.3807589 30.9255878,19.1374023 C30.7809703,18.8940457 30.5141409,18.7460174 30.2272727,18.75 L15.1136364,18.75 C15.0887921,18.7488551 15.0639068,18.7488551 15.0390625,18.75 Z" id="Shape"></path>
            </g>
        </g>
    </g>
</svg>