<?xml version="1.0" encoding="UTF-8"?>
<svg width="28px" height="28px" viewBox="0 0 28 28" version="1.1" xmlns="http://www.w3.org/2000/svg" xmlns:xlink="http://www.w3.org/1999/xlink">
    <!-- Generator: Sketch 63.1 (92452) - https://sketch.com -->
    <title>Fill 3</title>
    <desc>Created with Sketch.</desc>
    <g id="Web-Redesign-2020" stroke="none" stroke-width="1" fill="none" fill-rule="evenodd">
        <g id="Candidate-Profile_standalone" transform="translate(-462.000000, -214.000000)" fill="#232333">
            <g id="Fill-3" transform="translate(462.000000, 214.000000)">
                <path d="M14,0 C6.276,0 0,6.276 0,14 C0,21.724 6.276,28 14,28 C21.724,28 28,21.724 28,14 C28,6.276 21.724,0 14,0 Z M13.3125,1.39583333 C13.35547,3.09766667 13.3333333,4.91416667 13.3333333,6.65616667 L9.052,6.65616667 C9.9947,3.81243333 11.4895,1.78516667 13.3123333,1.39583333 L13.3125,1.39583333 Z M14.6666667,1.41666667 C16.4609333,1.83983333 17.9336,3.84636667 18.8646667,6.65633333 L14.6666667,6.65633333 L14.6666667,1.41666667 Z M10.354,1.8646 C9.2967,3.02736667 8.40086667,4.6784 7.76026667,6.65626667 L3.67693333,6.65626667 C5.2889,4.39323333 7.6276,2.68093333 10.354,1.8646 L10.354,1.8646 Z M17.6456,1.8646 C20.3722333,2.681 22.7106667,4.39323333 24.3226667,6.65626667 L20.2393333,6.65626667 C19.5987,4.6784 18.7028667,3.02726667 17.6456,1.8646 L17.6456,1.8646 Z M2.84366667,7.9896 L7.38533333,7.9896 C6.97776667,9.6211 6.72516667,11.4206 6.677,13.3229333 L1.354,13.3229333 C1.45426,11.3984667 1.9803,9.59126667 2.8436,7.9896 L2.84366667,7.9896 Z M8.66666667,7.9896 L13.3333333,7.9896 L13.3333333,13.3229333 L7.97933333,13.3229333 C8.02620667,11.4284 8.26058333,9.6106 8.66683333,7.9896 L8.66666667,7.9896 Z M14.6666667,7.9896 L19.25,7.9896 C19.6562667,9.6107 19.8906333,11.4282667 19.9375,13.3229333 L14.6668333,13.3229333 L14.6666667,7.9896 Z M20.6146667,7.9896 L25.1563333,7.9896 C26.0196,9.59116667 26.5456667,11.3986 26.6459333,13.3229333 L21.3229333,13.3229333 C21.2747567,11.4206 21.0221533,9.62126667 20.6146,7.9896 L20.6146667,7.9896 Z M1.35433333,14.6562667 L6.67733333,14.6562667 C6.72290667,16.5573 6.97030333,18.3592667 7.37526667,19.9896 L2.8336,19.9896 C1.97553333,18.3906333 1.4534,16.5769333 1.35443333,14.6562667 L1.35433333,14.6562667 Z M7.97933333,14.6562667 L13.3333333,14.6562667 L13.3333333,19.9896 L8.66666667,19.9896 C8.26173333,18.3672 8.02473333,16.5509333 7.97916667,14.6562667 L7.97933333,14.6562667 Z M14.6666667,14.6562667 L19.9373333,14.6562667 C19.89176,16.5508 19.65478,18.3672667 19.2498333,19.9896 L14.6665,19.9896 L14.6666667,14.6562667 Z M21.323,14.6562667 L26.646,14.6562667 C26.54704,16.5768333 26.0249,18.3906 25.1668333,19.9896 L20.6251667,19.9896 C21.0301,18.3594 21.2775,16.5572667 21.3231,14.6562667 L21.323,14.6562667 Z M3.65633333,21.3229333 L7.75,21.3229333 C8.38933333,23.306 9.28516667,24.9582667 10.3437333,26.1249333 C7.61196667,25.3046333 5.26706667,23.595 3.65633333,21.3229333 L3.65633333,21.3229333 Z M9.05233333,21.3229333 L13.3336667,21.3229333 L13.3336667,26.5936 C11.4990333,26.2147 9.99766667,24.1821333 9.05233333,21.3229333 Z M14.667,21.3229333 L18.865,21.3229333 C17.934,24.1380333 16.4626667,26.1496 14.667,26.5729333 L14.667,21.3229333 Z M20.2503333,21.3229333 L24.344,21.3229333 C22.7333333,23.5950667 20.3883333,25.3046 17.6566667,26.1249333 C18.7152667,24.9582667 19.6111,23.3059333 20.2504,21.3229333 L20.2503333,21.3229333 Z" id="Fill-1"></path>
            </g>
        </g>
    </g>
</svg>